
<svg width="98px" height="30px" viewBox="0 0 98 30" version="1.1" xmlns="http://www.w3.org/2000/svg" xmlns:xlink="http://www.w3.org/1999/xlink">
    <g id="Page-1" stroke="none" stroke-width="1" fill="none" fill-rule="evenodd">
        <g id="Normal-Submission---Mobile" transform="translate(-136.000000, -175.000000)">
            <rect id="Rectangle" fill="#FFFFFF" x="136.007229" y="175.118072" width="97.8313253" height="29.3493976" rx="14.6746988"></rect>
            <path d="M175.879364,188.834024 C175.879364,189.562867 175.640655,190.121484 175.16226,190.509875 C174.684843,190.899243 174.004916,191.092949 173.122477,191.092949 L172.396569,191.092949 L172.396569,193.706024 L171.254877,193.706024 L171.254877,186.721846 L173.266289,186.721846 C174.138945,186.721846 174.79148,186.900877 175.224872,187.256983 C175.6612,187.614067 175.879364,188.139422 175.879364,188.834024 Z M172.396569,190.133224 L173.003123,190.133224 C173.589133,190.133224 174.01959,190.030501 174.293518,189.827012 C174.567446,189.623523 174.70441,189.304593 174.70441,188.872178 C174.70441,188.470092 174.581142,188.170728 174.336564,187.974087 C174.091007,187.776467 173.708487,187.677658 173.189981,187.677658 L172.396569,187.677658 L172.396569,190.133224 Z M178.27721,193.706024 L177.155084,193.706024 L177.155084,186.2728 L178.27721,186.2728 L178.27721,193.706024 Z M183.192255,193.706024 L182.968222,192.970333 L182.930067,192.970333 C182.674728,193.292198 182.41841,193.51134 182.161113,193.629716 C181.902839,193.744178 181.572169,193.801899 181.167147,193.801899 C180.648641,193.801899 180.241663,193.661022 179.949147,193.381224 C179.659566,193.101427 179.514776,192.704231 179.514776,192.191595 C179.514776,191.647653 179.716308,191.236761 180.12133,190.95892 C180.525373,190.682058 181.141711,190.531398 181.969364,190.505961 L182.88213,190.476612 L182.88213,190.194858 C182.88213,189.85734 182.802887,189.605913 182.643422,189.440578 C182.486892,189.27133 182.243292,189.187195 181.912622,189.187195 C181.641629,189.187195 181.382376,189.227306 181.133884,189.306549 C180.885393,189.385793 180.646684,189.479711 180.417759,189.588304 L180.053827,188.786087 C180.340472,188.636405 180.654511,188.52292 180.994964,188.446612 C181.336395,188.367369 181.657282,188.327258 181.960559,188.327258 C182.63266,188.327258 183.138448,188.474005 183.478901,188.76652 C183.823267,189.060014 183.995451,189.519822 183.995451,190.14692 L183.995451,193.706024 L183.192255,193.706024 Z M181.520318,192.941961 C181.928275,192.941961 182.255031,192.828477 182.49961,192.602487 C182.748101,192.373561 182.872347,192.053653 182.872347,191.642761 L182.872347,191.183933 L182.194376,191.212304 C181.666087,191.23187 181.280631,191.320896 181.03801,191.480361 C180.799301,191.635913 180.679947,191.876578 180.679947,192.201378 C180.679947,192.437152 180.750386,192.620096 180.890284,192.750212 C181.030183,192.878371 181.24052,192.941961 181.520318,192.941961 Z M184.759513,188.423133 L185.982405,188.423133 L187.057571,191.417749 C187.219971,191.844294 187.327586,192.245402 187.382371,192.622053 L187.420525,192.622053 C187.448896,192.446935 187.501725,192.234641 187.578034,191.986149 C187.654342,191.734723 188.058386,190.547051 188.791142,188.423133 L190.004251,188.423133 L187.745325,194.408453 C187.334434,195.507099 186.649614,196.055933 185.690867,196.055933 C185.442376,196.055933 185.200733,196.029518 184.964959,195.974733 L184.964959,195.086424 C185.133229,195.124578 185.325957,195.144145 185.543142,195.144145 C186.084149,195.144145 186.464713,194.830106 186.684834,194.203007 L186.880496,193.706024 L184.759513,188.423133 Z M197.447258,186.721846 L198.631995,186.721846 L196.186212,193.706024 L194.981908,193.706024 L192.545908,186.721846 L193.720863,186.721846 L195.177571,191.064578 C195.254858,191.271002 195.336058,191.53906 195.421171,191.866795 C195.507263,192.191595 195.563027,192.434217 195.588463,192.592704 C195.63053,192.35106 195.69412,192.070284 195.780212,191.752333 C195.866304,191.433402 195.935764,191.198607 195.989571,191.045012 L197.447258,186.721846 Z M200.556337,193.706024 L199.434212,193.706024 L199.434212,188.423133 L200.556337,188.423133 L200.556337,193.706024 Z M199.367687,187.023166 C199.367687,186.822612 199.421494,186.668039 199.530087,186.559446 C199.641614,186.451831 199.799123,186.397046 200.002612,186.397046 C200.200231,186.397046 200.352848,186.451831 200.461441,186.559446 C200.572969,186.668039 200.628733,186.822612 200.628733,187.023166 C200.628733,187.213937 200.572969,187.365576 200.461441,187.477104 C200.352848,187.584718 200.200231,187.639504 200.002612,187.639504 C199.799123,187.639504 199.641614,187.584718 199.530087,187.477104 C199.421494,187.365576 199.367687,187.213937 199.367687,187.023166 Z M203.948149,193.801899 C203.288766,193.801899 202.775152,193.56319 202.405349,193.084795 C202.036525,192.607378 201.851624,191.937234 201.851624,191.074361 C201.851624,190.207576 202.037504,189.534496 202.410241,189.053166 C202.785913,188.568901 203.305398,188.327258 203.967716,188.327258 C204.66134,188.327258 205.190607,188.583576 205.553561,189.096212 L205.610304,189.096212 C205.556496,188.717605 205.529104,188.418241 205.529104,188.19812 L205.529104,186.2728 L206.657099,186.2728 L206.657099,193.706024 L205.777595,193.706024 L205.581933,193.013378 L205.529104,193.013378 C205.170063,193.538733 204.642752,193.801899 203.948149,193.801899 Z M204.24947,192.894024 C204.711234,192.894024 205.046795,192.764887 205.257133,192.506612 C205.46747,192.245402 205.576063,191.823749 205.581933,191.240675 L205.581933,191.083166 C205.581933,190.417913 205.474318,189.945388 205.257133,189.664612 C205.040925,189.384814 204.701451,189.243937 204.239687,189.243937 C203.844448,189.243937 203.541171,189.405359 203.32692,189.727224 C203.113648,190.045176 203.007012,190.50107 203.007012,191.092949 C203.007012,191.678959 203.110713,192.126048 203.318116,192.435195 C203.52454,192.741407 203.835643,192.894024 204.24947,192.894024 Z M210.569373,193.801899 C209.74759,193.801899 209.10386,193.56319 208.639161,193.084795 C208.177398,192.604443 207.946516,191.943104 207.946516,191.102733 C207.946516,190.23986 208.161745,189.560911 208.591224,189.067841 C209.021682,188.573793 209.612583,188.327258 210.363928,188.327258 C211.061465,188.327258 211.612255,188.538573 212.016299,188.962183 C212.42132,189.385793 212.622853,189.968867 212.622853,190.710429 L212.622853,191.317961 L209.102882,191.317961 C209.118535,191.830598 209.257455,192.224858 209.518665,192.502699 C209.779875,192.775648 210.14772,192.912612 210.622202,192.912612 C210.934284,192.912612 211.223865,192.884241 211.490945,192.827499 C211.761937,192.766843 212.051518,192.668034 212.360665,192.53107 L212.360665,193.442858 C212.086737,193.573952 211.809875,193.665913 211.529099,193.720699 C211.249301,193.774506 210.929393,193.801899 210.569373,193.801899 Z M210.363928,189.177412 C210.006843,189.177412 209.720198,189.290896 209.50399,189.516887 C209.290718,189.742877 209.163537,190.072569 209.12147,190.505961 L211.520294,190.505961 C211.513446,190.069634 211.408766,189.739942 211.204299,189.516887 C211.00081,189.290896 210.720034,189.177412 210.363928,189.177412 Z M218.584694,191.054795 C218.584694,191.917667 218.363595,192.591725 217.920419,193.075012 C217.478222,193.559277 216.861884,193.801899 216.072386,193.801899 C215.578337,193.801899 215.14201,193.690371 214.763402,193.467316 C214.384795,193.24426 214.093258,192.924352 213.88879,192.506612 C213.685301,192.089851 213.583557,191.605586 213.583557,191.054795 C213.583557,190.197793 213.803677,189.529605 214.24294,189.048275 C214.682202,188.567923 215.301475,188.327258 216.100757,188.327258 C216.864819,188.327258 217.470395,188.573793 217.916506,189.067841 C218.361639,189.557976 218.584694,190.220294 218.584694,191.054795 Z M214.739923,191.054795 C214.739923,192.274752 215.189947,192.884241 216.090973,192.884241 C216.983195,192.884241 217.429306,192.274752 217.429306,191.054795 C217.429306,189.847557 216.98026,189.243937 216.082169,189.243937 C215.610622,189.243937 215.268212,189.400467 215.05494,189.712549 C214.844602,190.024631 214.739923,190.47172 214.739923,191.054795 Z" id="Shape" fill="#FF5C5C" fill-rule="nonzero"></path>
            <path d="M163.888178,188.945552 C164.540713,189.322202 164.540713,190.26334 163.888178,190.63999 L156.550829,194.876087 C155.899272,195.252737 155.083359,194.782169 155.083359,194.028867 L155.083359,185.556675 C155.083359,184.803373 155.899272,184.332805 156.550829,184.709455 L163.888178,188.945552 Z" id="Path" fill="#FF5C5C"></path>
        </g>
    </g>
</svg>