
<svg width="15px" height="16px" viewBox="0 0 15 16" version="1.1" xmlns="http://www.w3.org/2000/svg" xmlns:xlink="http://www.w3.org/1999/xlink">
    <g id="Page-1" stroke="none" stroke-width="1" fill="none" fill-rule="evenodd" stroke-linecap="round" stroke-linejoin="round">
        <g id="Normal-Submission---Desktop" transform="translate(-338.000000, -650.000000)" stroke="#292929" stroke-width="1.35015">
            <path d="M350.125786,655.261932 C351.310244,655.261932 352.270081,654.331781 352.270081,653.183935 C352.270081,652.036088 351.310244,651.105937 350.125786,651.105937 C348.941327,651.105937 347.98149,652.036088 347.98149,653.183935 C347.98149,654.331781 348.941327,655.261932 350.125786,655.261932 Z" id="Path"></path>
            <path d="M341.550582,660.110594 C342.734051,660.110594 343.693888,659.180442 343.693888,658.032596 C343.693888,656.885739 342.734051,655.954598 341.550582,655.954598 C340.366123,655.954598 339.406286,656.885739 339.406286,658.032596 C339.406286,659.180442 340.366123,660.110594 341.550582,660.110594 Z" id="Path"></path>
            <path d="M350.125786,664.959255 C351.310244,664.959255 352.270081,664.029104 352.270081,662.881257 C352.270081,661.733411 351.310244,660.80326 350.125786,660.80326 C348.941327,660.80326 347.98149,661.733411 347.98149,662.881257 C347.98149,664.029104 348.941327,664.959255 350.125786,664.959255 Z" id="Path"></path>
            <path d="M343.40099,659.078522 L348.282305,661.835332" id="Path"></path>
            <path d="M348.275378,654.22986 L343.40099,656.986671" id="Path"></path>
        </g>
    </g>
</svg>