
<svg width="138px" height="19px" viewBox="0 0 138 19" version="1.1" xmlns="http://www.w3.org/2000/svg" xmlns:xlink="http://www.w3.org/1999/xlink">
    <g id="Page-1" stroke="none" stroke-width="1" fill="none" fill-rule="evenodd">
        <g id="Normal-Submission---Desktop" transform="translate(-49.000000, -49.000000)" fill="#FFFFFF">
            <path d="M68.7969616,60.8305122 L68.5583877,62.5361525 C68.3676077,63.876362 68.2005763,65.3869674 67.9382538,67.019482 L63.3107509,67.019482 C63.7877998,63.2671129 64.4080326,59.4660594 64.4080326,58.8813504 C64.4080326,58.2234168 63.9786787,57.7848603 63.4299884,57.7848603 C62.7144645,57.7848603 62.1897206,58.3208847 62.0943306,59.1249709 L61.0208964,67.019482 L56.3934924,67.019482 C56.8705413,63.2671129 57.4907742,59.4660594 57.4907742,58.8813504 C57.4907742,58.2234168 57.0613213,57.7848603 56.5127299,57.7848603 C55.7971071,57.7848603 55.2723632,58.3208847 55.1769732,59.1249709 L54.103638,67.019482 L49.476135,67.019482 L51.1935506,54.5685157 L54.7237718,54.5685157 L54.9623458,56.371624 C55.3916007,55.7381315 56.7512049,54.3248952 58.8742258,54.3248952 C60.6869325,54.3248952 61.5933353,55.0802969 62.0465367,56.2254715 C62.833702,55.1289814 63.9070373,54.3248952 65.7914843,54.3248952 C68.0813388,54.3248952 69.202468,55.689447 69.202468,57.4681141 C69.202468,57.760518 69.0354366,59.1736554 68.7969616,60.8305122 Z M75.9761467,67.2632014 L75.6183353,67.2632014 C71.7303027,67.2632014 69.6789232,65.1433469 69.6789232,62.0244703 C69.6789232,58.3940105 71.9449302,54.3248952 77.001787,54.3248952 L77.4072934,54.3248952 C81.2237835,54.3248952 83.2989115,56.4204075 83.2989115,59.5878696 C83.2989115,64.0225146 80.2934342,67.2632014 75.9761467,67.2632014 Z M74.5688475,62.8529977 C74.5688475,63.7057683 75.1651339,64.3149185 75.9999942,64.3149185 C77.0256345,64.3149185 77.7412573,63.5595169 77.8843423,62.6092782 L78.1466647,60.8306112 L78.4090861,58.7594412 C78.4090861,58.0041385 77.8604948,57.2731781 76.9779395,57.2731781 C75.9999942,57.2731781 75.2366764,58.0284808 75.0935914,58.9788184 C74.8073225,60.7818277 74.5688475,62.6092782 74.5688475,62.8529977 Z M89.8819092,67.2632014 L89.5240978,67.2632014 C85.6360652,67.2632014 83.5847846,65.1433469 83.5847846,62.0244703 C83.5847846,58.3940105 85.8507916,54.3248952 90.9075495,54.3248952 L91.3130559,54.3248952 C95.129546,54.3248952 97.204773,56.4204075 97.204773,59.5878696 C97.204773,64.0225146 94.1992957,67.2632014 89.8819092,67.2632014 Z M88.47461,62.8529977 C88.47461,63.7057683 89.0708964,64.3149185 89.9057567,64.3149185 C90.931397,64.3149185 91.6470198,63.5595169 91.7901048,62.6092782 L92.0525262,60.8306112 L92.3148487,58.7594412 C92.3148487,58.0041385 91.7662573,57.2731781 90.883702,57.2731781 C89.9057567,57.2731781 89.1425378,58.0284808 88.9993539,58.9788184 C88.7131839,60.7818277 88.47461,62.6092782 88.47461,62.8529977 Z M110.72858,56.2498137 C110.25163,59.6609953 109.750931,63.1696449 109.77468,63.4620489 C109.77468,63.9250466 109.822177,64.3392608 110.371362,64.3392608 C110.681083,64.3392608 110.990803,64.1930093 111.254016,64.0225146 L110.895809,66.7027357 C110.204133,67.0682654 109.202736,67.2632014 108.438824,67.2632014 C107.07922,67.2632014 105.695867,67.0439232 105.266414,65.5820023 C104.503492,66.434773 103.573341,67.2632014 101.808033,67.2632014 C99.232305,67.2632014 97.5383411,65.6549302 97.5383411,62.3168743 C97.5383411,56.9563329 100.377183,54.3248952 103.143888,54.3248952 C104.836962,54.3248952 105.695867,55.0071711 106.077823,55.8599418 L106.960477,49.476135 L111.683469,49.476135 L110.72858,56.2498137 Z M102.16624,62.8773399 C102.16624,63.7301106 102.690687,64.3148196 103.42986,64.3148196 C104.455995,64.3148196 105.004191,63.5595169 105.147672,62.6092782 L105.386147,60.8549534 C105.504889,59.9533993 105.64837,59.0031607 105.64837,58.7838824 C105.64837,57.8336438 105.123923,57.3706461 104.38376,57.3706461 C103.501106,57.3706461 102.785681,58.1260477 102.666938,59.0762864 C102.16624,62.682404 102.16624,62.7798719 102.16624,62.8773399 Z M124.420605,59.6123108 L120.413038,59.6123108 C120.413038,59.2711234 120.484284,58.9056927 120.484284,58.7594412 C120.484284,57.9066705 119.91234,57.2731781 119.077183,57.2731781 C117.956054,57.2731781 117.311874,58.0284808 117.193132,58.9788184 C116.882421,60.6843597 116.667695,62.4630268 116.667695,62.8529977 C116.667695,63.7057683 117.240629,64.3149185 118.265774,64.3149185 C119.577881,64.3149185 120.127066,63.3645809 120.245809,62.6092782 L120.341793,61.9757858 L124.109895,61.9757858 C123.609197,65.3626251 121.152212,67.2632014 117.69383,67.2632014 C113.638766,67.2632014 111.778463,64.850943 111.778463,62.195163 C111.778463,57.9066705 114.330442,54.3248952 119.172177,54.3248952 C123.632945,54.3248952 124.491851,57.0052154 124.491851,58.735099 C124.491851,59.0275029 124.468102,59.3199069 124.420605,59.6123108 Z M133.722119,56.0548778 L134.533527,54.5685157 L138.087893,54.5685157 C137.419965,58.637631 136.823283,62.9016822 136.823283,63.6813271 C136.823283,64.0468568 136.990512,64.3392608 137.443714,64.3392608 C137.753434,64.3392608 138.064144,64.1930093 138.326368,64.0225146 L137.968161,66.7027357 C137.276484,67.0682654 136.275087,67.2632014 135.511176,67.2632014 C134.080326,67.2632014 132.649476,67.019482 132.26752,65.3626251 C131.432363,66.434773 130.072759,67.2632014 128.713155,67.2632014 C125.755471,67.2632014 124.634342,65.04578 124.634342,62.3168743 C124.634342,58.8082247 126.280908,54.3248952 130.359721,54.3248952 C131.623341,54.3248952 132.9117,54.9097031 133.603376,56.0548778 L133.722119,56.0548778 Z M129.309837,62.8773399 C129.309837,63.7301106 129.834284,64.3148196 130.574447,64.3148196 C131.599593,64.3148196 132.147788,63.5595169 132.291269,62.6092782 L132.529744,60.8549534 C132.649476,59.9533993 132.791967,59.0031607 132.791967,58.7838824 C132.791967,57.8336438 132.26752,57.3706461 131.528347,57.3706461 C130.645693,57.3706461 129.930268,58.1260477 129.810536,59.0762864 C129.309837,62.682404 129.309837,62.7798719 129.309837,62.8773399 Z M151.087253,58.2965425 L147.17468,58.2965425 L147.17468,58.1747322 C147.17468,57.3706461 146.316764,57.2000524 145.648836,57.2000524 C145.195634,57.2000524 143.788533,57.2000524 143.788533,57.9797963 C143.788533,59.5635274 150.801281,57.7117346 150.801281,62.1706228 C150.801281,64.9971944 148.987485,67.2631024 144.216997,67.2631024 L143.978522,67.2631024 C140.567637,67.2631024 138.516356,66.239837 138.516356,63.9249476 C138.516356,63.6083003 138.540105,63.2428696 138.61234,62.9503667 L142.476426,62.9503667 C142.452678,62.9748079 142.452678,63.0234924 142.452678,63.0479336 L142.452678,63.2184284 C142.452678,64.0956403 143.573807,64.3149185 144.336729,64.3149185 C144.78993,64.3149185 146.483003,64.2904773 146.483003,63.4864901 C146.483003,61.8538766 139.542491,63.5351746 139.542491,59.1736554 C139.542491,55.689447 143.072119,54.3248952 145.958556,54.3248952 L146.149534,54.3248952 C148.654016,54.3248952 151.253492,55.2752328 151.253492,57.3463038 C151.253492,57.9066705 151.063504,58.2965425 151.087253,58.2965425 Z M158.457218,54.5685157 L161.318917,54.5685157 L160.841967,58.0285797 L157.980268,58.0285797 C157.288591,62.8042142 157.288591,62.9503667 157.288591,63.0966182 C157.288591,64.1443248 157.78929,64.3148196 158.480966,64.3148196 C158.839173,64.3148196 159.578347,64.1930093 159.984051,64.0225146 L159.602095,66.7515192 C158.790687,67.0682654 157.145111,67.2875437 156.333702,67.2875437 C153.972701,67.2875437 152.39837,66.629709 152.39837,64.5341967 C152.39837,63.9981723 152.422119,64.0955413 153.257276,58.0285797 L151.92142,58.0285797 L152.39837,54.5685157 L153.734226,54.5685157 L154.282421,50.5969674 L159.267637,50.5969674 L158.457218,54.5685157 Z M173.961059,59.6366531 C173.937311,60.0021828 173.866065,60.5382072 173.746333,61.4396624 L165.803434,61.4396624 L165.70844,62.0488126 C165.659953,62.3655588 165.588708,62.7554307 165.612456,62.877241 C165.612456,63.8275786 166.304133,64.3149185 167.234284,64.3149185 C168.379162,64.3149185 169.070838,63.5351746 169.238068,62.3412165 L173.602852,62.3412165 C173.221886,65.0946624 170.717404,67.2632014 166.972061,67.2632014 L166.614843,67.2632014 C163.17922,67.2632014 160.698487,65.3869674 160.698487,62.1462806 C160.698487,57.2488359 163.847148,54.3248952 168.236671,54.3248952 L168.832363,54.3248952 C172.244237,54.3248952 174.008556,56.2254715 174.008556,58.9788184 L173.961059,59.6366531 Z M166.089406,59.3199069 L169.381548,59.3199069 C169.381548,59.2224389 169.429045,59.0518452 169.429045,58.7594412 C169.429045,57.9066705 168.857101,57.2731781 168.021944,57.2731781 C167.068044,57.2731781 166.256636,58.0284808 166.137893,58.9788184 L166.089406,59.3199069 Z M185.624563,59.6122119 L181.760477,59.6122119 C181.760477,59.3199069 181.831723,59.0276019 181.831723,58.8326659 C181.831723,58.0771653 181.474505,57.8092026 180.997555,57.8092026 C180.329627,57.8092026 179.900175,58.345227 179.804191,59.0275029 L178.7078,67.019482 L174.103551,67.019482 L175.821362,54.5686147 L179.35099,54.5686147 L179.614203,56.371624 C179.804191,56.0060943 181.188533,54.3248952 183.120081,54.3248952 C185.028871,54.3248952 186.030268,55.3726019 186.030268,57.0294587 C186.030268,57.6629511 185.791793,58.6863155 185.624563,59.6122119 Z" id="Shape"></path>
        </g>
    </g>
</svg>