
<svg width="50px" height="50px" viewBox="0 0 50 50" version="1.1" xmlns="http://www.w3.org/2000/svg" xmlns:xlink="http://www.w3.org/1999/xlink">
    <!-- Generator: Sketch 51.2 (57519) - http://www.bohemiancoding.com/sketch -->
    <desc>Created with Sketch.</desc>
    <defs></defs>
    <g id="Page-1" stroke="none" stroke-width="1" fill="none" fill-rule="evenodd">
        <g id="Submission-Email" transform="translate(-46.000000, -29.000000)" fill-rule="nonzero">
            <g id="Group-2" transform="translate(46.000000, 29.000000)">
                <rect id="Rectangle-path" fill="#FFFFFF" x="0.0649509804" y="0.124" width="49.879902" height="49.7586667" rx="6"></rect>
                <path d="M40.2818627,21.1826667 C40.2818627,21.6626667 40.0245098,23.9826667 39.6568627,26.7026667 L39.2892157,29.5026667 C38.995098,31.7026667 38.7377451,34.1826667 38.3333333,36.8626667 L31.2009804,36.8626667 C31.9362745,30.7026667 32.8921569,24.4626667 32.8921569,23.5026667 C32.8921569,22.4226667 32.2303922,21.7026667 31.3848039,21.7026667 C30.2818627,21.7026667 29.4730392,22.5826667 29.3259804,23.9026667 L27.6715686,36.8626667 L20.5392157,36.8626667 C21.2745098,30.7026667 22.2303922,24.4626667 22.2303922,23.5026667 C22.2303922,22.4226667 21.5686275,21.7026667 20.7230392,21.7026667 C19.620098,21.7026667 18.8112745,22.5826667 18.6642157,23.9026667 L17.0098039,36.8626667 L9.87745098,36.8626667 L12.5245098,16.4226667 L17.9656863,16.4226667 L18.3333333,19.3826667 C18.995098,18.3426667 21.0906863,16.0226667 24.3627451,16.0226667 C27.1568627,16.0226667 28.5539216,17.2626667 29.252451,19.1426667 C30.4656863,17.3426667 32.120098,16.0226667 35.0245098,16.0226667 C38.5539216,16.0226667 40.2818627,18.2666667 40.2818627,21.1826667 Z" id="Shape" fill="#F15D5E"></path>
            </g>
        </g>
    </g>
</svg>