
<svg width="124px" height="16px" viewBox="0 0 124 16" version="1.1" xmlns="http://www.w3.org/2000/svg" xmlns:xlink="http://www.w3.org/1999/xlink">
    <!-- Generator: Sketch 51.2 (57519) - http://www.bohemiancoding.com/sketch -->
    <desc>Created with Sketch.</desc>
    <defs></defs>
    <g id="Symbols" stroke="none" stroke-width="1" fill="none" fill-rule="evenodd">
        <g id="navigation/mobile" transform="translate(-23.000000, -28.000000)" fill="#FF5C5C">
            <path d="M40.5445257,38.1996845 L40.3279293,39.7318182 C40.1546522,40.9357106 40.0030347,42.2927433 39.7647786,43.7592142 L35.5627361,43.7592142 C35.9959289,40.388447 36.5591518,36.9739774 36.5591518,36.4486744 C36.5591518,35.8577085 36.169206,35.4637313 35.6710343,35.4637313 C35.0212451,35.4637313 34.544733,35.945259 34.4580944,36.6675507 L33.4834106,43.7592142 L29.2813681,43.7592142 C29.7145609,40.388447 30.2777837,36.9739774 30.2777837,36.4486744 C30.2777837,35.8577085 29.887838,35.4637313 29.3896663,35.4637313 C28.739877,35.4637313 28.2633649,35.945259 28.1767264,36.6675507 L27.2020425,43.7592142 L23,43.7592142 L24.5595663,32.5744918 L27.7651932,32.5744918 L27.9817896,34.194249 C28.3716631,33.6251708 29.6062627,32.3556155 31.5340429,32.3556155 C33.1801756,32.3556155 34.003242,33.0342049 34.4147751,34.0629233 C35.1295433,33.0779801 36.1042271,32.3556155 37.815411,32.3556155 C39.8947365,32.3556155 40.9127396,33.5813955 40.9127396,35.1791922 C40.9127396,35.4418437 40.7611221,36.7113259 40.5445257,38.1996845 Z M47.0637022,43.9780978 L46.7388076,43.9780978 C43.2082139,43.9780978 41.3454848,42.0738744 41.3454848,39.2721854 C41.3454848,36.0109292 43.4031507,32.3556228 47.9950667,32.3556228 L48.3632806,32.3556228 C51.8288954,32.3556228 53.7132841,34.2380316 53.7132841,37.0834229 C53.7132841,41.0670436 50.9840972,43.9780978 47.0637022,43.9780978 Z M45.7857834,40.0164376 C45.7857834,40.7825045 46.3272744,41.3296951 47.0853618,41.3296951 C48.0167264,41.3296951 48.6665156,40.6511058 48.7964734,39.7974884 L49.0347295,38.1996917 L49.2729855,36.3392436 C49.2729855,35.6607272 48.7748138,35.0040985 47.9734071,35.0040985 C47.0853618,35.0040985 46.3922533,35.6826148 46.2622955,36.5362322 C46.0023798,38.1559165 45.7857834,39.7974884 45.7857834,40.0164376 Z M59.6910851,43.9780978 L59.3661905,43.9780978 C55.8355968,43.9780978 53.9728677,42.0738744 53.9728677,39.2721854 C53.9728677,36.0109292 56.0305336,32.3556228 60.6224496,32.3556228 L60.9906635,32.3556228 C64.4562783,32.3556228 66.340667,34.2380316 66.340667,37.0834229 C66.340667,41.0670436 63.6114801,43.9780978 59.6910851,43.9780978 Z M58.4131663,40.0164376 C58.4131663,40.7825045 58.9546573,41.3296951 59.7127447,41.3296951 C60.6441093,41.3296951 61.2938985,40.6511058 61.4238563,39.7974884 L61.6621124,38.1996917 L61.9003684,36.3392436 C61.9003684,35.6607272 61.4021967,35.0040985 60.60079,35.0040985 C59.7127447,35.0040985 59.0196362,35.6826148 58.8896784,36.5362322 C58.6297627,38.1559165 58.4131663,39.7974884 58.4131663,40.0164376 Z M78.6215029,34.0847598 C78.1883101,37.1491003 77.7334576,40.3009184 77.7551173,40.5635699 C77.7551173,40.9794348 77.7984365,41.3515244 78.2966083,41.3515244 C78.5781836,41.3515244 78.8597589,41.2201986 79.098015,41.0669853 L78.7731204,43.474697 C78.1449908,43.8030114 77.2352859,43.9781124 76.5421774,43.9781124 C75.3075056,43.9781124 74.0512465,43.7811237 73.6613729,42.4678662 C72.9682644,43.2339331 72.1235384,43.9781124 70.520725,43.9781124 C68.1814116,43.9781124 66.6435771,42.5334561 66.6435771,39.5348515 C66.6435771,34.719501 69.2211466,32.3556374 71.7336649,32.3556374 C73.2714994,32.3556374 74.0512465,32.9684909 74.3978007,33.7345578 L75.1992074,28 L79.4878885,28 L78.6215029,34.0847598 Z M70.8456196,40.0382669 C70.8456196,40.8043337 71.3221317,41.3296368 71.9935806,41.3296368 C72.9249452,41.3296368 73.4231169,40.6511204 73.5530747,39.797503 L73.7696711,38.221594 C73.8779694,37.4117518 74.0079272,36.5581344 74.0079272,36.3611458 C74.0079272,35.5075284 73.5314151,35.0916636 72.8599662,35.0916636 C72.0585595,35.0916636 71.4087703,35.7701799 71.3004721,36.6237973 C70.8456196,39.8631659 70.8456196,39.9507164 70.8456196,40.0382669 Z M91.0541007,37.1053105 L87.4152088,37.1053105 C87.4152088,36.7988837 87.4801877,36.4705694 87.4801877,36.3392436 C87.4801877,35.5731767 86.9603563,35.0040985 86.2021967,35.0040985 C85.1842658,35.0040985 84.5993833,35.6826148 84.4910851,36.5362322 C84.2095819,38.068366 84.0146452,39.6661626 84.0146452,40.0164376 C84.0146452,40.7825045 84.5344766,41.3296951 85.4658411,41.3296951 C86.6571214,41.3296951 87.1552931,40.4760048 87.2635913,39.7974884 L87.3502299,39.2284101 L90.7724531,39.2284101 C90.3176007,42.270863 88.0866577,43.9780978 84.9460097,43.9780978 C81.2637986,43.9780978 79.5743466,41.8112229 79.5743466,39.4254717 C79.5743466,35.5731767 81.8919282,32.3556228 86.2889075,32.3556228 C90.3392603,32.3556228 91.1190796,34.7633346 91.1190796,36.317356 C91.1190796,36.5800075 91.0973477,36.842659 91.0541007,37.1053105 Z M99.5011729,33.9096588 L100.237601,32.5745137 L103.464959,32.5745137 C102.858417,36.2298201 102.316926,40.0601545 102.316926,40.7605585 C102.316926,41.0888729 102.468616,41.3515244 102.880149,41.3515244 C103.161652,41.3515244 103.4433,41.2201986 103.681556,41.0669853 L103.356661,43.474697 C102.728459,43.8030114 101.818827,43.9781124 101.125646,43.9781124 C99.8260675,43.9781124 98.526489,43.7592361 98.1798626,42.2708046 C97.4217752,43.2339331 96.1872478,43.9781124 94.9525761,43.9781124 C92.2667806,43.9781124 91.2487053,41.9862655 91.2487053,39.5348515 C91.2487053,36.3830334 92.7432927,32.3556374 96.4470913,32.3556374 C97.5951245,32.3556374 98.7647451,32.8809404 99.3928747,33.9096588 L99.5011729,33.9096588 Z M95.4940671,40.0382669 C95.4940671,40.8043337 95.9706514,41.3296368 96.6421003,41.3296368 C97.5734648,41.3296368 98.0715644,40.6511204 98.2015944,39.797503 L98.4181908,38.221594 C98.526489,37.4117518 98.6564469,36.5581344 98.6564469,36.3611458 C98.6564469,35.5075284 98.1798626,35.0916636 97.5084859,35.0916636 C96.7070792,35.0916636 96.05729,35.7701799 95.9489918,36.6237973 C95.4940671,39.8631659 95.4940671,39.9507164 95.4940671,40.0382669 Z M115.269196,35.9233714 L111.717015,35.9233714 L111.717015,35.8139333 C111.717015,35.0916417 110.937268,34.9384283 110.330798,34.9384283 C109.919265,34.9384283 108.641346,34.9384283 108.641346,35.6388323 C108.641346,37.0615279 115.009353,35.3980684 115.009353,39.4035038 C115.009353,41.9425413 113.363148,43.9780905 109.03122,43.9780905 L108.814624,43.9780905 C105.717295,43.9780905 103.854494,43.0588102 103.854494,40.9794129 C103.854494,40.6949467 103.876153,40.3666323 103.941132,40.1039079 L107.450066,40.1039079 C107.428407,40.1258684 107.428407,40.1695707 107.428407,40.1915313 L107.428407,40.3447447 C107.428407,41.1326992 108.446337,41.3296878 109.139518,41.3296878 C109.551051,41.3296878 111.088886,41.3077272 111.088886,40.5855086 C111.088886,39.1189647 104.785858,40.6292838 104.785858,36.7113259 C104.785858,33.5813955 107.991557,32.3556155 110.612374,32.3556155 L110.785651,32.3556155 C113.059985,32.3556155 115.420886,33.2093059 115.420886,35.069754 C115.420886,35.5731694 115.247609,35.9233714 115.269196,35.9233714 Z M121.961787,32.5745137 L124.560944,32.5745137 L124.127751,35.6826294 L121.528594,35.6826294 C120.900465,39.972604 120.900465,40.1039297 120.900465,40.2352555 C120.900465,41.1764234 121.355317,41.3296368 121.983447,41.3296368 C122.308342,41.3296368 122.97979,41.2201986 123.348004,41.0669853 L123.001378,43.5184722 C122.26495,43.8030114 120.770435,44 120.034007,44 C117.889703,44 116.460166,43.4090341 116.460166,41.5266983 C116.460166,41.0451706 116.481826,41.1326481 117.239913,35.6826294 L116.026973,35.6826294 L116.460166,32.5745137 L117.673106,32.5745137 L118.171278,29.0068308 L122.698143,29.0068308 L121.961787,32.5745137 Z M136.040381,37.1271981 C136.018793,37.4555125 135.953742,37.9370402 135.845444,38.7468824 L128.632783,38.7468824 L128.546145,39.294073 C128.502826,39.5786121 128.437847,39.9288141 128.459434,40.0382523 C128.459434,40.8919426 129.087636,41.3296951 129.932362,41.3296951 C130.972025,41.3296951 131.600154,40.6292911 131.751772,39.5567245 L135.715486,39.5567245 C135.369004,42.0300991 133.094742,43.9780978 129.694106,43.9780978 L129.369211,43.9780978 C126.250151,43.9780978 123.997548,42.2927506 123.997548,39.3816235 C123.997548,34.9822108 126.856621,32.3556228 130.841995,32.3556228 L131.383558,32.3556228 C134.480959,32.3556228 136.083772,34.0629306 136.083772,36.5362322 L136.040381,37.1271981 Z M128.892627,36.842659 L131.88173,36.842659 C131.88173,36.7551085 131.925049,36.6018951 131.925049,36.3392436 C131.925049,35.5731767 131.405217,35.0040985 130.64713,35.0040985 C129.780672,35.0040985 129.044317,35.6826148 128.936018,36.5362322 L128.892627,36.842659 Z M146.631786,37.105274 L143.122852,37.105274 C143.122852,36.8426955 143.187831,36.580044 143.187831,36.404943 C143.187831,35.7263536 142.862936,35.4855897 142.429744,35.4855897 C141.823274,35.4855897 141.4334,35.9671175 141.346762,36.580044 L140.350418,43.7591851 L136.170107,43.7591851 L137.729529,32.5745356 L140.935228,32.5745356 L141.173484,34.1942198 C141.346762,33.8659055 142.603093,32.3556593 144.357379,32.3556593 C146.090295,32.3556593 147,33.2968272 147,34.7851857 C147,35.354264 146.783404,36.2735442 146.631786,37.105274 Z" id="Moodcaster-logotype"></path>
        </g>
    </g>
</svg>