
<svg width="194px" height="26px" viewBox="0 0 194 26" version="1.1" xmlns="http://www.w3.org/2000/svg" xmlns:xlink="http://www.w3.org/1999/xlink">
    <!-- Generator: Sketch 51.2 (57519) - http://www.bohemiancoding.com/sketch -->
    <desc>Created with Sketch.</desc>
    <defs></defs>
    <g id="Page-1" stroke="none" stroke-width="1" fill="none" fill-rule="evenodd">
        <g id="Submission-Email" transform="translate(-1209.000000, -955.000000)" fill="#FFFFFF" fill-rule="nonzero">
            <g id="Group-3" transform="translate(1209.000000, 955.000000)">
                <g id="Artboard-10-copy-3">
                    <path d="M28.2215704,11.8643953 C28.2215704,12.2705325 27.984657,14.2335289 27.6462094,16.5349729 L27.3077617,18.9041065 C27.0370036,20.7655686 26.8000903,22.863944 26.4277978,25.1315433 L19.8619134,25.1315433 C20.5388087,19.9194495 21.4187726,14.6396661 21.4187726,13.8273917 C21.4187726,12.913583 20.8095668,12.3043773 20.0311372,12.3043773 C19.0157942,12.3043773 18.2712094,13.0489621 18.1358303,14.1658394 L16.6116877,25.1371841 L10.0458032,25.1371841 C10.7226986,19.9250903 11.6026625,14.6453069 11.6026625,13.8330325 C11.6026625,12.9192238 10.9934567,12.3100181 10.2150271,12.3100181 C9.19968412,12.3100181 8.45509928,13.0546029 8.31972022,14.1714801 L6.79670578,25.1371841 L0.2308213,25.1371841 L2.66425993,7.83686823 L7.6732852,7.83686823 L8.01173285,10.3413809 C8.62093863,9.46141697 10.5500903,7.49842058 13.5622744,7.49842058 C16.1344765,7.49842058 17.4205776,8.5476083 18.0636282,10.1383123 C19.1805054,8.61529783 20.7035199,7.49842058 23.3772563,7.49842058 C26.6308664,7.49842058 28.2215704,9.39372744 28.2215704,11.8643953 Z" id="Shape"></path>
                    <path d="M48.2226986,14.8088899 C48.2226986,20.9686372 43.9582581,25.469991 37.8323556,25.469991 L37.3246841,25.469991 C31.8079874,25.469991 28.8973375,22.5254964 28.8973375,18.1933664 C28.8973375,13.1504964 32.1125903,7.49842058 39.2876805,7.49842058 L39.8630415,7.49842058 C45.278204,7.49842058 48.2226986,10.4090704 48.2226986,14.8088899 Z M36.5800993,13.9627708 C36.1739621,16.4672834 35.8355144,19.0056408 35.8355144,19.3440884 C35.8355144,20.5286552 36.6816336,21.3747744 37.8662004,21.3747744 C39.3215253,21.3747744 40.3368682,20.3255866 40.5399368,19.0056408 L40.9122292,16.5349729 L41.2845217,13.6581679 C41.2845217,12.6089801 40.5060921,11.5936372 39.2538357,11.5936372 C37.8628159,11.5936372 36.7831679,12.6428249 36.5800993,13.9627708 Z" id="Shape"></path>
                    <path d="M67.9541968,14.8088899 C67.9541968,20.9686372 63.6897563,25.469991 57.5638538,25.469991 L57.0561823,25.469991 C51.5394856,25.469991 48.6288357,22.5254964 48.6288357,18.1933664 C48.6288357,13.1504964 51.8440884,7.49842058 59.0191787,7.49842058 L59.5945397,7.49842058 C65.0097022,7.49842058 67.9541968,10.4090704 67.9541968,14.8088899 Z M56.3115975,13.9627708 C55.9054603,16.4672834 55.5670126,19.0056408 55.5670126,19.3440884 C55.5670126,20.5286552 56.4131318,21.3747744 57.5976986,21.3747744 C59.0530235,21.3747744 60.0683664,20.3255866 60.271435,19.0056408 L60.6437274,16.5349729 L61.0160199,13.6581679 C61.0160199,12.6089801 60.2375903,11.5936372 58.9853339,11.5936372 C57.5976986,11.5936372 56.5146661,12.6428249 56.3115975,13.9627708 Z" id="Shape"></path>
                    <path d="M87.1441787,9.83370939 C86.4672834,14.5719765 85.7565433,19.4456227 85.7903881,19.8517599 C85.7903881,20.4948105 85.8580776,21.0701715 86.6365072,21.0701715 C87.0764892,21.0701715 87.5164711,20.8671029 87.8887635,20.6301895 L87.3810921,24.3531137 C86.3995939,24.8607852 84.9781137,25.1315433 83.8950812,25.1315433 C81.9659296,25.1315433 80.0029332,24.8269404 79.3937274,22.7962545 C78.3106949,23.9808213 76.9907491,25.1315433 74.4862365,25.1315433 C70.8310018,25.1315433 68.4280235,22.8977888 68.4280235,18.261056 C68.4280235,10.8152076 72.4555505,7.15997292 76.3815433,7.15997292 C78.7845217,7.15997292 80.0029332,8.10762635 80.5444495,9.29219314 L81.7967058,0.424864621 L88.4979693,0.424864621 L87.1441787,9.83370939 Z M75.704648,13.7597022 C74.9939079,18.7687274 74.9939079,18.9041065 74.9939079,19.0394856 C74.9939079,20.2240523 75.7384928,21.0363267 76.7876805,21.0363267 C78.2430054,21.0363267 79.021435,19.987139 79.2245036,18.6671931 L79.5629513,16.23037 C79.7321751,14.9781137 79.9352437,13.6581679 79.9352437,13.353565 C79.9352437,12.0336191 79.1906588,11.3905686 78.1414711,11.3905686 C76.8880866,11.3905686 75.8727437,12.4397563 75.7035199,13.7597022 L75.704648,13.7597022 Z" id="Shape"></path>
                    <path d="M106.672608,13.353565 C106.672416,13.761807 106.638456,14.1693337 106.571074,14.5719765 L100.885153,14.5719765 C100.885153,14.0981498 100.986688,13.5904783 100.986688,13.3874097 C100.986688,12.202843 100.174413,11.3228791 98.9898466,11.3228791 C97.3991426,11.3228791 96.4853339,12.3720668 96.3161101,13.6920126 C95.8761282,16.0611462 95.5715253,18.5318141 95.5715253,19.0733303 C95.5715253,20.2578971 96.3837996,21.1040162 97.8391245,21.1040162 C99.7005866,21.1040162 100.479016,19.7840704 100.64824,18.7348827 L100.783619,17.8549188 L106.131092,17.8549188 C105.420352,22.5593412 101.934341,25.1992329 97.0268502,25.1992329 C91.2732401,25.1992329 88.6333484,21.8486011 88.6333484,18.1595217 C88.6333484,12.202843 92.2547383,7.22766245 99.1252256,7.22766245 C105.453069,7.22766245 106.672608,10.9505866 106.672608,13.353565 Z" id="Shape"></path>
                    <path d="M119.600181,9.63064079 L119.769404,9.63064079 L120.920126,7.56611011 L125.962996,7.56611011 C125.015343,13.2181859 124.169224,19.1410199 124.169224,20.2240523 C124.169224,20.7317238 124.406137,21.137861 125.049188,21.137861 C125.48917,21.137861 125.929152,20.9347924 126.301444,20.6978791 L125.793773,24.4208032 C124.812274,24.9284747 123.390794,25.1992329 122.307762,25.1992329 C120.277076,25.1992329 118.24639,24.8607852 117.704874,22.5593412 C116.520307,24.0485108 114.591155,25.1992329 112.662004,25.1992329 C108.465253,25.1992329 106.874549,22.1193592 106.874549,18.3287455 C106.874549,13.4550993 109.209838,7.22766245 114.997292,7.22766245 C116.791065,7.22766245 118.618682,8.03993682 119.600181,9.63064079 Z M114.218863,13.8273917 C113.508123,18.836417 113.508123,18.971796 113.508123,19.1071751 C113.508123,20.2917419 114.252708,21.1040162 115.301895,21.1040162 C116.75722,21.1040162 117.53565,20.0548285 117.738718,18.7348827 L118.077166,16.2980596 C118.24639,15.0458032 118.449458,13.7258574 118.449458,13.4212545 C118.449458,12.1013087 117.704874,11.4582581 116.655686,11.4582581 C115.40343,11.4582581 114.388087,12.5018051 114.218863,13.8273917 Z" id="Shape"></path>
                    <path d="M144.645307,11.4244134 C144.645307,12.202843 144.374549,12.7443592 144.408394,12.7443592 L138.857852,12.7443592 L138.857852,12.5751354 C138.857852,11.4582581 137.63944,11.2213448 136.691787,11.2213448 C136.048736,11.2213448 134.051895,11.2213448 134.051895,12.3043773 C134.051895,14.504287 144.002256,11.9320848 144.002256,18.1256769 C144.002256,22.0516697 141.430054,25.1992329 134.661101,25.1992329 L134.322653,25.1992329 C129.482852,25.1992329 126.572202,23.7777527 126.572202,20.5625 C126.565217,20.1075361 126.610642,19.6532808 126.707581,19.2087094 L132.190433,19.2087094 C132.163604,19.2484611 132.151622,19.2963878 132.156588,19.3440884 L132.156588,19.5810018 C132.156588,20.7994134 133.747292,21.1040162 134.830325,21.1040162 C135.473375,21.1040162 137.876354,21.0701715 137.876354,19.9532942 C137.876354,17.6856949 128.027527,20.0209838 128.027527,13.9627708 C128.027527,9.12296931 133.036552,7.22766245 137.131769,7.22766245 L137.402527,7.22766245 C140.956227,7.22766245 144.645307,8.5476083 144.645307,11.4244134 Z" id="Shape"></path>
                    <path d="M154.866426,7.46457581 L158.927798,7.46457581 L158.250903,12.2705325 L154.189531,12.2705325 C153.208032,18.9041065 153.208032,19.1071751 153.208032,19.3102437 C153.208032,20.7655686 153.918773,21.0024819 154.900271,21.0024819 C155.407942,21.0024819 156.45713,20.8332581 157.032491,20.5963448 L156.490975,24.3869585 C155.340253,24.8269404 153.004964,25.1315433 151.854242,25.1315433 C148.50361,25.1315433 146.269856,24.2177347 146.269856,21.3070848 C146.269856,20.5625 146.3037,20.6978791 147.488267,12.2705325 L145.59296,12.2705325 L146.269856,7.46457581 L148.165162,7.46457581 L148.943592,1.94787906 L156.017148,1.94787906 L154.866426,7.46457581 Z" id="Shape"></path>
                    <path d="M176.933213,13.6920126 L176.865523,14.6058213 C176.831679,15.1134928 176.730144,15.8580776 176.560921,17.1103339 L165.290614,17.1103339 L165.155235,17.9564531 C165.087545,18.396435 164.986011,18.9379513 165.019856,19.1071751 C165.019856,20.4271209 166.001354,21.1040162 167.3213,21.1040162 C168.945848,21.1040162 169.927347,20.0209838 170.16426,18.3625903 L176.357852,18.3625903 C175.816336,22.1870487 172.262635,25.1992329 166.949007,25.1992329 L166.441336,25.1992329 C161.56769,25.1992329 158.047834,22.5931859 158.047834,18.0918321 C158.047834,11.2890343 162.515343,7.22766245 168.74278,7.22766245 L169.588899,7.22766245 C174.4287,7.22766245 176.933213,9.86755415 176.933213,13.6920126 Z M165.76444,13.6920126 L165.696751,14.1658394 L170.367329,14.1658394 C170.367329,14.0304603 170.435018,13.7935469 170.435018,13.3874097 C170.435018,12.202843 169.622744,11.3228791 168.438177,11.3228791 C167.082005,11.3389277 165.943044,12.3477079 165.763312,13.6920126 L165.76444,13.6920126 Z" id="Shape"></path>
                    <path d="M193.989847,11.2551895 C193.989847,12.1351534 193.651399,13.5566336 193.414486,14.8427347 L187.931634,14.8427347 C187.931634,14.4365975 188.033168,14.0304603 188.033168,13.7597022 C188.033168,12.7105144 187.525496,12.338222 186.848601,12.338222 C185.900948,12.338222 185.291742,13.0828069 185.156363,14.0304603 L183.599504,25.1315433 L177.067464,25.1315433 L179.504287,7.83686823 L184.513312,7.83686823 L184.885605,10.3413809 C185.156363,9.83370939 187.119359,7.49842058 189.860785,7.49842058 C192.568366,7.49842058 193.989847,8.95374549 193.989847,11.2551895 Z" id="Shape"></path>
                </g>
            </g>
        </g>
    </g>
</svg>